<svg xmlns="http://www.w3.org/2000/svg" viewBox="0 0 3000 2250" width="3000" height="2250"><g transform="translate(528.75 375.0) rotate(0.0 939.375 656.25) scale(3.640254677351851 3.632866019901186)"><svg width="516.104" height="361.285" viewBox="0 0 516.104 361.285"><path d="m330.394 356.041-3.33-1.695a37.63 37.63 0 0 1-20.558-33.534V204.25h-96.907v116.562a37.628 37.628 0 0 1-20.558 33.534l-3.331 1.695c-2.35 1.197-1.499 4.744 1.138 4.744h142.407c2.638 0 3.489-3.547 1.139-4.744z" fill="#fff"/><path d="M329.255 361.285H186.848c-1.639 0-2.65-1.158-2.926-2.307s.101-2.64 1.562-3.383l3.33-1.695c12.513-6.37 20.285-19.049 20.285-33.089V204.25a.5.5 0 0 1 .5-.5h96.907a.5.5 0 0 1 .5.5v116.562c0 14.04 7.772 26.719 20.284 33.089l3.33 1.695c1.461.743 1.836 2.234 1.561 3.382s-1.286 2.307-2.926 2.307zM210.099 204.75v116.062c0 14.418-7.982 27.438-20.832 33.979l-3.33 1.695c-1.041.53-1.212 1.548-1.042 2.259.171.71.784 1.54 1.953 1.54h142.407c1.169 0 1.783-.83 1.954-1.54.17-.711-.001-1.729-1.042-2.259l-3.33-1.695c-12.85-6.541-20.831-19.562-20.831-33.979V204.75z" fill="#1d2445"/><path d="M209.272 286.326h97.034v5.085h-97.034z" fill="#1d2445"/><path d="M503.061.5H13.043C6.116.5.5 6.116.5 13.043V273.94c0 6.927 5.616 12.543 12.543 12.543h490.018c6.927 0 12.543-5.616 12.543-12.543V13.043C515.604 6.116 509.989.5 503.061.5z" fill="#fff"/><path d="M503.061 286.984H13.043C5.852 286.984 0 281.132 0 273.941V13.043C0 5.851 5.852 0 13.043 0h490.018c7.192 0 13.044 5.851 13.044 13.043V273.94c0 7.192-5.852 13.044-13.044 13.044zM13.043 1C6.403 1 1 6.402 1 13.043V273.94c0 6.641 5.402 12.043 12.043 12.043h490.018c6.641 0 12.044-5.402 12.044-12.043V13.043C515.105 6.402 509.702 1 503.061 1z" fill="#1d2445"/><path d="M515.604 242.415H.5v31.526c0 6.927 5.616 12.543 12.543 12.543h490.018c6.927 0 12.543-5.616 12.543-12.543z" fill="#fff"/><path d="M503.061 286.984H13.043C5.852 286.984 0 281.133 0 273.941v-31.526a.5.5 0 0 1 .5-.5h515.104a.5.5 0 0 1 .5.5v31.526c.001 7.192-5.851 13.043-13.043 13.043zM1 242.914v31.026c0 6.641 5.402 12.043 12.043 12.043h490.018c6.641 0 12.044-5.402 12.044-12.043v-31.026z" fill="#1d2445"/><path d="M18.184 17.476h479.737v208.175H18.184z" fill="#fff"/><g fill="#1d2445"><path d="M497.92 226.151H18.184a.5.5 0 0 1-.5-.5V17.477a.5.5 0 0 1 .5-.5H497.92a.5.5 0 0 1 .5.5v208.174a.5.5 0 0 1-.5.5zm-479.236-1H497.42V17.977H18.684zm244.254 49.834h-9.771c-2.759 0-5.017-2.258-5.017-5.017v-9.771c0-2.759 2.258-5.017 5.017-5.017h9.771c2.759 0 5.017 2.258 5.017 5.017v9.771c0 2.759-2.258 5.017-5.017 5.017z"/><path d="M262.938 275.485h-9.771a5.525 5.525 0 0 1-5.518-5.518v-9.771a5.525 5.525 0 0 1 5.518-5.518h9.771a5.525 5.525 0 0 1 5.518 5.518v9.771a5.525 5.525 0 0 1-5.518 5.518zm-9.772-19.806a4.523 4.523 0 0 0-4.518 4.518v9.771a4.523 4.523 0 0 0 4.518 4.518h9.771a4.523 4.523 0 0 0 4.518-4.518v-9.771a4.523 4.523 0 0 0-4.518-4.518z"/></g></svg></g><g transform="translate(1151.25 1068.75) rotate(0.0 646.875 320.625) scale(3.675530554845308 3.7064331541529394)"><svg width="351.99" height="173.01" viewBox="0 0 351.99 173.01"><path d="m189.52 88.46 7.98 32.79-71.09 17.81-7.98-32.79z" fill="#fff"/><g fill="#1d2445"><path d="M126.41 139.56c-.09 0-.18-.02-.26-.07a.515.515 0 0 1-.23-.31l-7.98-32.79c-.06-.27.1-.54.36-.6l71.09-17.81c.13-.03.27-.01.38.06s.2.18.23.31l7.98 32.79c.06.27-.1.54-.36.6l-71.09 17.81s-.08.02-.12.02zm-7.37-32.93 7.74 31.82 70.12-17.57-7.74-31.82z"/><path d="M7.62 166.64.64 137.93c-.64-2.64.94-5.3 3.54-5.95l154.64-38.74 9.31 38.26-154.64 38.74c-2.6.65-5.23-.96-5.87-3.6z"/><path d="M12.32 170.88c-.95 0-1.89-.26-2.73-.77-1.24-.75-2.11-1.94-2.45-3.36s-6.98-28.7-6.98-28.7c-.71-2.9 1.05-5.84 3.91-6.56l154.64-38.74c.13-.03.27-.01.38.06s.2.18.23.31l9.31 38.26c.06.27-.1.54-.36.6L13.61 170.72c-.43.11-.86.16-1.29.16zm-4.21-4.36c.28 1.16.99 2.13 2 2.74.99.6 2.15.77 3.26.49l154.16-38.62-9.07-37.29L4.31 132.46c-2.33.58-3.75 2.98-3.18 5.35z"/></g><ellipse cx="266.76" cy="86.49" fill="#fff" rx="79.87" ry="81.06"/><path d="M266.61 172.51c-15.25 0-30.26-4.21-43.65-12.42-19.37-11.87-33.02-30.69-38.45-52.99-5.42-22.3-1.97-45.4 9.73-65.06s30.24-33.52 52.21-39.02C291.8-8.34 337.81 19.86 349 65.89s-16.59 92.72-61.95 104.08a84.496 84.496 0 0 1-20.46 2.54zm.15-162.17c-5.94 0-11.96.72-17.98 2.23-19.46 4.87-35.88 17.15-46.24 34.56s-13.42 37.87-8.62 57.62 16.89 36.41 34.05 46.93c17.15 10.52 37.31 13.62 56.77 8.75 40.16-10.06 64.78-51.41 54.86-92.17-8.43-34.66-39.15-57.9-72.84-57.9z" fill="#1d2445"/><path d="M266.61 173.01c-15.4 0-30.58-4.32-43.91-12.49-19.48-11.94-33.22-30.87-38.67-53.3-5.45-22.42-1.98-45.66 9.79-65.44 11.77-19.77 30.42-33.71 52.52-39.25 21.86-5.48 44.58-2.04 63.98 9.68C330.09 24.15 344 43.17 349.5 65.77c11.26 46.29-16.69 93.26-62.31 104.68a85.055 85.055 0 0 1-20.58 2.56zM266.83.99c-6.75 0-13.54.83-20.25 2.51-21.84 5.47-40.27 19.25-51.9 38.79-11.63 19.55-15.07 42.52-9.68 64.69s18.97 40.88 38.22 52.68c13.17 8.08 28.18 12.34 43.39 12.35 6.85 0 13.69-.85 20.33-2.52 45.09-11.3 72.71-57.72 61.58-103.48-5.43-22.34-19.19-41.14-38.72-52.94C296.58 5.09 281.81 1 266.83 1zm-.21 162.18c-13.6 0-26.98-3.75-38.92-11.07-17.27-10.58-29.44-27.36-34.27-47.24-4.83-19.87-1.75-40.47 8.68-57.99s26.96-29.88 46.55-34.78a74.46 74.46 0 0 1 18.1-2.24c34.83 0 64.98 23.97 73.33 58.29 9.98 41.03-14.79 82.65-55.22 92.78a75.296 75.296 0 0 1-18.24 2.26zm.13-152.33c-5.99 0-12 .74-17.85 2.21-19.33 4.84-35.64 17.03-45.93 34.33s-13.34 37.63-8.56 57.24c4.77 19.62 16.78 36.17 33.82 46.62 17.04 10.44 37.06 13.53 56.39 8.69 39.9-10 64.35-51.07 54.5-91.57-8.24-33.87-37.99-57.52-72.36-57.52z" fill="#1d2445"/></svg></g><g transform="translate(1230.0 570.0) rotate(0.0 232.5 232.5) scale(4.313463572104413 4.313463572104413)"><svg width="107.802" height="107.802" viewBox="0 0 107.802 107.802"><g fill="#1D2445"><path d="M0 15.557 15.556.001l92.245 92.245-15.556 15.556z"/><path d="M0 92.246 92.243 0 107.8 15.557l-92.245 92.245z"/></g></svg></g><g transform="translate(2103.75 453.75) rotate(0.0 369.375 624.375) scale(3.9745093397606954 3.9986999221874613)"><svg width="185.872" height="312.289" viewBox="0 0 185.872 312.289"><path d="m144.189 190.146-28.075-18.566 13.522-5.835 4.803-14.977c.86-4.619-2.327-9.804-6.984-10.397l-62.561-6.574c-2.103-.245-6.893-.141-12.649.131-5.742-2.766-9.919-4.732-9.919-4.732l-4.255 5.573c-10.695.728-20.373 1.546-20.373 1.546L15.795 151.1c-2.154 16.735 9.022 30.295 24.507 34.492 2.111 1.454 56.727 21.883 56.727 21.883l36.349 5.73 11.654-10.562c3.056-3.569 2.892-9.653-.843-12.497z" fill="#1d2445"/><path d="M133.378 213.705a.512.512 0 0 1-.078-.006l-36.35-5.729a.658.658 0 0 1-.097-.025c-2.209-.827-53.608-20.061-56.752-21.889-16.675-4.552-26.871-18.941-24.803-35.019l1.903-14.787a.501.501 0 0 1 .454-.435c.096-.009 9.666-.814 20.155-1.53l4.117-5.394a.499.499 0 0 1 .61-.148s4.123 1.94 9.809 4.678c6.459-.302 10.696-.344 12.604-.122l62.556 6.574c2.2.28 4.197 1.519 5.635 3.488 1.588 2.179 2.256 4.981 1.787 7.498l-4.817 15.037a.503.503 0 0 1-.278.307l-12.673 5.469 27.304 18.057c1.784 1.357 2.893 3.43 3.15 5.854.285 2.681-.539 5.441-2.203 7.385l-11.698 10.607a.498.498 0 0 1-.335.13zm-36.221-6.716 36.063 5.685 11.477-10.401c1.445-1.693 2.181-4.172 1.925-6.584-.229-2.148-1.199-3.976-2.734-5.146l-28.048-18.547a.502.502 0 0 1 .077-.876l13.313-5.745 4.732-14.76c.404-2.19-.198-4.704-1.628-6.664-1.272-1.746-3.027-2.842-4.942-3.085l-62.55-6.573c-1.859-.216-6.115-.171-12.573.133a.435.435 0 0 1-.24-.049 1444.768 1444.768 0 0 0-9.55-4.557l-4.01 5.252a.498.498 0 0 1-.363.195c-9.352.636-18.022 1.349-19.963 1.511l-1.852 14.386c-2.006 15.591 7.921 29.55 24.142 33.945a.531.531 0 0 1 .153.07c1.689 1.165 41.361 16.121 56.571 21.81z" fill="#1d2445"/><path d="m185.291 306.467-.287-.825a4.316 4.316 0 0 0-3.063-2.778l-15.496-3.746a12.923 12.923 0 0 1-7.335-4.851l-3.562-4.791a4.318 4.318 0 0 0-3.465-1.741h-14.097v3.004l-1.822 4.985a28.76 28.76 0 0 0-1.746 10.131l.023 2.527h21.936l.001.001h27.551c.992 0 1.688-.979 1.362-1.916z" fill="#fff"/><path d="m183.928 308.883-49.487-.001a.5.5 0 0 1-.5-.495l-.023-2.527a29.145 29.145 0 0 1 1.776-10.309l1.791-4.901v-2.916a.5.5 0 0 1 .5-.5h14.098c1.516 0 2.961.727 3.866 1.944l3.563 4.789a12.44 12.44 0 0 0 7.051 4.664l15.496 3.746a4.795 4.795 0 0 1 3.418 3.101l.287.825a1.92 1.92 0 0 1-.252 1.763c-.37.519-.947.817-1.584.817zm-48.992-1.001 48.992.001c.31 0 .589-.145.769-.396a.929.929 0 0 0 .121-.855l-.287-.825a3.798 3.798 0 0 0-2.707-2.456l-15.496-3.746a13.447 13.447 0 0 1-7.619-5.04l-3.563-4.789a3.832 3.832 0 0 0-3.063-1.541h-13.598v2.505a.532.532 0 0 1-.03.172l-1.821 4.984a28.15 28.15 0 0 0-1.716 9.955z" fill="#1d2445"/><path d="M134.416 307.982h50.683v3.807h-50.683z" fill="#fff"/><path d="M185.1 312.289h-50.684a.5.5 0 0 1-.5-.5v-3.808a.5.5 0 0 1 .5-.5H185.1a.5.5 0 0 1 .5.5v3.808a.5.5 0 0 1-.5.5zm-50.184-1H184.6v-2.808h-49.684zm.879-13.366 35.209-12.498-23.212-88.434c-2.214-7.413-6.453-8.124-11.604-6.429l-25.998 8.553-.061 29.003a48.869 48.869 0 0 0 4.377 20.319z" fill="#1d2445"/><path d="M135.794 298.423a.5.5 0 0 1-.459-.303l-21.289-49.486a49.03 49.03 0 0 1-4.418-20.518l.061-29.003a.5.5 0 0 1 .344-.474l25.998-8.553c1.613-.531 3.008-.789 4.265-.789 3.849 0 6.457 2.47 7.976 7.55l23.216 88.45a.5.5 0 0 1-.316.599l-35.209 12.498a.5.5 0 0 1-.169.029zm-25.106-98.946-.06 28.642a48.052 48.052 0 0 0 4.332 20.111l21.108 49.065 34.334-12.188-23.095-87.989c-1.389-4.647-3.618-6.82-7.013-6.82-1.148 0-2.441.242-3.952.738zM62.139 48.633H46.53V8.43A7.93 7.93 0 0 1 54.46.5h4.904a2.776 2.776 0 0 1 2.776 2.776v45.357z" fill="#1d2445"/><path d="M62.139 49.134H46.53a.5.5 0 0 1-.5-.5V8.43c0-4.649 3.782-8.43 8.43-8.43h4.903a3.28 3.28 0 0 1 3.275 3.275v45.358a.499.499 0 0 1-.499.501zm-15.109-1h14.609V3.275A2.278 2.278 0 0 0 59.364 1H54.46c-4.098 0-7.431 3.333-7.431 7.43v39.704z" fill="#1d2445"/><path d="m75.588 109.117.757-7.508a8.115 8.115 0 0 1 2.246-4.833l3.517-3.63a8.116 8.116 0 0 0 1.218-9.673l-2.583-4.522a8.116 8.116 0 0 1-.789-6.141l1.835-6.798a14.105 14.105 0 0 0-7.144-16.208l-11.263-5.819-6.522-.195a21.571 21.571 0 0 0-12.529 3.559l-12.225 8.07a29.708 29.708 0 0 0-11.264 13.902c-.014.028-.032.053-.046.082l-9.513 19.448-9.495 23.277a6.817 6.817 0 0 0 2.666 8.335l1.824 1.154a6.446 6.446 0 0 0 5.473.675c.02 3.318.048 5.688.048 5.688l1.105 24.508 69.46-2.901-2.88-18.793z" fill="#fff"/><path d="M12.904 152.984a.499.499 0 0 1-.499-.478L11.3 128a940.29 940.29 0 0 1-.045-5.057 7.01 7.01 0 0 1-5.245-.906l-1.824-1.154a7.312 7.312 0 0 1-2.861-8.947L10.82 88.66l9.527-19.479C22.672 63.318 26.633 58.43 31.83 55l12.226-8.07a21.91 21.91 0 0 1 12.818-3.642l6.522.195a.505.505 0 0 1 .215.056l11.263 5.819c6.065 3.134 9.176 10.191 7.396 16.782l-1.835 6.798a7.57 7.57 0 0 0 .74 5.764l2.584 4.521c1.89 3.31 1.357 7.532-1.293 10.27l-3.517 3.63a7.648 7.648 0 0 0-2.108 4.535l-.75 7.438 3.884 21.605 2.882 18.806a.504.504 0 0 1-.473.577l-69.46 2.9h-.02zm-1.153-31.195a.497.497 0 0 1 .5.497c.02 3.315.048 5.685.048 5.686l1.082 23.992 68.403-2.856-2.795-18.24-3.895-21.662a.499.499 0 0 1-.005-.139l.758-7.508a8.65 8.65 0 0 1 2.384-5.131l3.517-3.63c2.344-2.42 2.813-6.153 1.143-9.078l-2.584-4.521a8.565 8.565 0 0 1-.836-6.521l1.835-6.797c1.657-6.141-1.241-12.715-6.891-15.634L63.253 44.48l-6.408-.191a20.939 20.939 0 0 0-12.238 3.476l-12.226 8.07a29.092 29.092 0 0 0-11.075 13.668 1.589 1.589 0 0 1-.055.109l-9.52 19.456-9.481 23.245a6.313 6.313 0 0 0 2.471 7.725l1.824 1.154a6.009 6.009 0 0 0 5.051.622.488.488 0 0 1 .155-.025z" fill="#1d2445"/><path d="M59.065 8.195a2 2 0 0 1-1.732-2.997c.818-1.423 2.497-2.517 4.491-2.927 2.216-.456 4.415-.021 6.033 1.193a1.999 1.999 0 1 1-2.401 3.199c-.691-.519-1.751-.695-2.827-.474-.976.201-1.632.66-1.828 1.002a1.997 1.997 0 0 1-1.736 1.004z" fill="#fff"/><path d="M59.066 8.695c-.436 0-.865-.115-1.244-.333a2.506 2.506 0 0 1-.922-3.413c.889-1.546 2.692-2.73 4.824-3.168 2.351-.481 4.711-.011 6.434 1.283.534.399.881.984.975 1.646a2.482 2.482 0 0 1-.475 1.854c-.794 1.06-2.436 1.3-3.501.499-.565-.424-1.498-.575-2.426-.384-.907.187-1.398.594-1.495.761a2.509 2.509 0 0 1-2.17 1.255zm4.474-6.101c-.534 0-1.077.056-1.615.167-1.855.381-3.41 1.386-4.158 2.687a1.503 1.503 0 0 0 .554 2.048c.696.401 1.652.136 2.048-.553.314-.55 1.163-1.038 2.161-1.243 1.206-.249 2.434-.032 3.228.563.645.486 1.619.341 2.1-.299.241-.321.343-.716.286-1.112s-.265-.747-.585-.987c-1.108-.832-2.497-1.271-4.019-1.271z" fill="#1d2445"/><path d="m58.868 36.22 23.291-8.329v-7.72c0-7.987-6.474-14.461-14.461-14.461h-4.104c-7.987 0-14.461 6.474-14.461 14.461v6.314c.001 5.376 4.359 9.735 9.735 9.735z" fill="#1d2445"/><path d="M58.868 36.72c-5.644 0-10.234-4.591-10.234-10.234v-6.314c0-8.249 6.712-14.961 14.961-14.961h4.104c8.249 0 14.961 6.712 14.961 14.961v7.72a.502.502 0 0 1-.332.471l-23.291 8.329a.535.535 0 0 1-.169.028zm4.727-30.51c-7.698 0-13.961 6.263-13.961 13.961v6.314c0 5.063 4.097 9.188 9.148 9.234l22.877-8.182V20.17c0-7.698-6.263-13.961-13.961-13.961h-4.103z" fill="#1d2445"/><path d="M72.22 59.086V26.724H54.792v16.751L70.33 59.84c.681.718 1.89.236 1.89-.754z" fill="#fff"/><path d="M71.116 60.684c-.436 0-.844-.178-1.149-.499L54.43 43.819a.501.501 0 0 1-.138-.345v-16.75a.5.5 0 0 1 .5-.5H72.22a.5.5 0 0 1 .5.5v32.361c0 .449-.178.862-.5 1.163a1.635 1.635 0 0 1-1.104.436zM55.292 43.275l15.399 16.22c.35.368.65.204.847.022a.572.572 0 0 0 .182-.432v-31.86H55.292z" fill="#1d2445"/><path d="M66.749 47.648a1.71 1.71 0 0 0 1.216.492l6.661-.097a1.705 1.705 0 0 0 1.447-.831l2.666-4.462a14.602 14.602 0 0 0 2.067-7.49v-8.72h-25.86v12.42" fill="#fff"/><path d="M67.952 48.64c-.58 0-1.145-.231-1.555-.637a.5.5 0 0 1 .703-.711c.227.225.529.38.859.348l6.658-.098a1.21 1.21 0 0 0 1.025-.587l2.666-4.463a14.107 14.107 0 0 0 1.996-7.233v-8.22H55.447v11.92a.5.5 0 0 1-1 0v-12.42a.5.5 0 0 1 .5-.5h25.859a.5.5 0 0 1 .5.5v8.72c0 2.727-.739 5.405-2.137 7.747l-2.666 4.462a2.22 2.22 0 0 1-1.872 1.074l-6.659.098h-.02z" fill="#1d2445"/><path d="M69.964 43.292a.5.5 0 0 1-.032-.999l1.846-.123a1.492 1.492 0 0 0 1.4-1.462l.113-4.972v-4.591c0-.194.113-.372.29-.454l7.022-3.255a.501.501 0 0 1 .42.908l-6.732 3.12v4.283l-.113 4.983a2.488 2.488 0 0 1-2.334 2.437l-1.846.123c-.011.002-.022.002-.034.002z" fill="#1d2445"/><path d="M54.367 24.296h.147A2.494 2.494 0 0 1 57 26.782v6.886a2.494 2.494 0 0 1-2.486 2.486h-.147a2.494 2.494 0 0 1-2.486-2.486v-6.886a2.493 2.493 0 0 1 2.486-2.486z" fill="#fff"/><g fill="#1d2445"><ellipse cx="68.445" cy="27.761" rx="13.714" ry="6.389"/><path d="M68.445 34.65c-7.971 0-14.214-3.026-14.214-6.89s6.243-6.89 14.214-6.89 14.215 3.026 14.215 6.89-6.245 6.89-14.215 6.89zm0-12.779c-7.163 0-13.214 2.697-13.214 5.89s6.051 5.89 13.214 5.89 13.215-2.697 13.215-5.89-6.052-5.89-13.215-5.89z"/><path d="M55.217 19.181h4.625v8.763h-4.625zM27.458 106.04a.441.441 0 0 1-.21-.052c-.213-.116-.325-.178-.138-.706l-.029-.021a.57.57 0 0 1 .067-.085c.239-.623.828-1.809 2.006-4.175 1.285-2.585 3.009-6.027 4.734-9.469 3.45-6.882 6.912-13.758 6.912-13.758a.5.5 0 0 1 .815-.114l2.903 3.167a.5.5 0 1 1-.736.676l-2.414-2.633c-3.815 7.58-12.581 25.028-13.358 26.723a.472.472 0 0 1-.061.165.587.587 0 0 1-.491.282zm42.123 3.538H44.9a1.899 1.899 0 0 1-1.893-1.893v-1.237c0-1.041.852-1.893 1.893-1.893h24.681c1.041 0 1.893.852 1.893 1.893v1.237a1.899 1.899 0 0 1-1.893 1.893z"/><path d="M69.58 110.078H44.9a2.396 2.396 0 0 1-2.393-2.393v-1.237a2.397 2.397 0 0 1 2.393-2.394h24.68a2.397 2.397 0 0 1 2.394 2.394v1.237a2.396 2.396 0 0 1-2.394 2.393zm-24.68-5.023c-.768 0-1.393.625-1.393 1.394v1.237c0 .768.625 1.393 1.393 1.393h24.68c.769 0 1.394-.625 1.394-1.393v-1.237c0-.769-.625-1.394-1.394-1.394z"/></g><path d="M66.446 109.489c-.004-.004-.004-.007-.004-.011l-.011-.026a2.09 2.09 0 0 0-2.296-1.28l-8.753 1.529-10.07-2.456-1.764-.971a.592.592 0 0 1-.301-.491l-3.134-2.489 2.308-.774.818.722c.982.867 2.454.87 3.439.008l.217-.19a.744.744 0 0 0 .07-1.05l-2.522-2.883a1.848 1.848 0 0 0-.953-.578 1.852 1.852 0 0 0-1.625-.233l-7.89 2.611-.574.145c-1.603.404-2.924.752-4.174 1.862l-22.816 8.033C2.768 112.25.453 115.05.503 118.115l.041 2.541c.068 4.251 4.598 7.67 10.16 7.67h.716c2.595 0 5.087-.759 6.974-2.121l16.233-11.723c.328-.011.658-.015.99.01l.067.007 8.511.856a4 4 0 0 0 2.776-.748l2.304-1.675 4.54.532c1.038.13 2.091.03 3.081-.298l9.21-3.011a.528.528 0 0 0 .34-.666z" fill="#fff"/><path d="M11.417 128.826h-.715c-5.807 0-10.589-3.661-10.66-8.162l-.041-2.541c-.053-3.279 2.396-6.273 6.242-7.627l22.726-8.001c1.346-1.162 2.786-1.524 4.309-1.908l.574-.145 7.854-2.601a2.356 2.356 0 0 1 1.989.244c.438.125.824.37 1.123.712l2.522 2.883a1.246 1.246 0 0 1-.117 1.756l-.216.189c-1.139.996-2.968.989-4.101-.009l-.601-.531-1.162.39 2.413 1.916a.497.497 0 0 1 .189.377l1.752 1.008 9.899 2.414 8.65-1.511a2.571 2.571 0 0 1 2.846 1.586l.009.022c.006.015.013.03.018.047.085.263.063.542-.063.787s-.34.426-.604.51l-9.206 3.01a7.56 7.56 0 0 1-3.299.318l-4.342-.508-2.146 1.56a4.469 4.469 0 0 1-3.122.841l-8.509-.856a6.679 6.679 0 0 0-.839-.019L18.685 126.61c-1.98 1.429-4.56 2.216-7.268 2.216zM42.44 98.724c-.142 0-.283.022-.42.067l-8.498 2.767c-1.491.375-2.779.698-3.964 1.751a.506.506 0 0 1-.166.098L6.575 111.44c-3.433 1.208-5.62 3.825-5.574 6.668l.041 2.541c.063 3.958 4.396 7.178 9.66 7.178h.715c2.499 0 4.872-.72 6.682-2.026l16.232-11.723a.504.504 0 0 1 .275-.095 9.375 9.375 0 0 1 1.046.011l8.59.865a3.53 3.53 0 0 0 2.432-.655l2.305-1.675a.513.513 0 0 1 .353-.093l4.54.531a6.485 6.485 0 0 0 2.865-.275l9.242-3.023-.004-.009c-.292-.717-.997-1.128-1.755-.994l-8.752 1.528a.469.469 0 0 1-.204-.007l-10.07-2.456a.496.496 0 0 1-.123-.047l-1.764-.971a1.108 1.108 0 0 1-.52-.656l-2.985-2.371a.5.5 0 0 1 .151-.866l2.309-.773a.493.493 0 0 1 .49.099l.817.722c.768.678 2.01.682 2.779.007l.216-.19a.247.247 0 0 0 .084-.168.244.244 0 0 0-.061-.177l-2.521-2.883a1.36 1.36 0 0 0-.696-.422.51.51 0 0 1-.162-.071 1.352 1.352 0 0 0-.768-.24z" fill="#1d2445"/><path d="m142 266.186-.038-.873a4.316 4.316 0 0 0-2.135-3.542l-13.764-8.045a12.923 12.923 0 0 1-5.63-6.756l-2.034-5.613a4.314 4.314 0 0 0-2.818-2.664l-13.502-4.054-.864 2.878-3.178 4.25a28.774 28.774 0 0 0-4.586 9.201l-.705 2.427 21.009 6.308.001.001 26.387 7.923a1.441 1.441 0 0 0 1.857-1.441z" fill="#fff"/><path d="M140.562 268.191c-.189 0-.378-.027-.562-.083l-47.396-14.233a.5.5 0 0 1-.337-.618l.704-2.428a29.172 29.172 0 0 1 4.666-9.361l3.126-4.179.839-2.792a.499.499 0 0 1 .622-.335l13.501 4.054a4.84 4.84 0 0 1 3.145 2.973l2.033 5.613a12.454 12.454 0 0 0 5.412 6.494l13.765 8.044a4.799 4.799 0 0 1 2.383 3.952l.037.873a1.929 1.929 0 0 1-.536 1.425 1.956 1.956 0 0 1-1.402.601zm-47.196-15.132 46.922 14.092a.947.947 0 0 0 .954-.253.927.927 0 0 0 .258-.69l-.037-.873a3.804 3.804 0 0 0-1.887-3.132l-13.765-8.044a13.45 13.45 0 0 1-5.848-7.018l-2.033-5.612a3.836 3.836 0 0 0-2.492-2.356l-13.022-3.909-.721 2.397a.497.497 0 0 1-.078.156l-3.179 4.25a28.16 28.16 0 0 0-4.506 9.041z" fill="#1d2445"/><path d="m92.84 253.018 48.545 14.577-1.095 3.646-48.544-14.576z" fill="#fff"/><path d="M140.286 271.728a.507.507 0 0 1-.144-.021L91.601 257.13a.5.5 0 0 1-.335-.622l1.095-3.646a.5.5 0 0 1 .622-.335l48.542 14.575a.498.498 0 0 1 .335.622l-1.095 3.646a.502.502 0 0 1-.479.358zm-47.919-15.412 47.584 14.288.807-2.688-47.584-14.287zm7.658-19.246 36.067 8.613 13.145-94.644c.679-5.38-3.325-10.216-8.738-10.552l-27.316-1.695-10.808 26.914a48.872 48.872 0 0 0-3.467 20.494z" fill="#1d2445"/><path d="M136.092 246.183a.504.504 0 0 1-.116-.014l-36.067-8.613a.5.5 0 0 1-.384-.476l-1.117-50.868a49.031 49.031 0 0 1 3.503-20.691l10.809-26.914c.08-.199.25-.344.495-.313l27.315 1.694c2.757.171 5.245 1.437 7.007 3.564s2.542 4.809 2.196 7.549l-13.146 94.649a.505.505 0 0 1-.495.433zm-35.576-9.51 35.156 8.396 13.069-94.098a8.807 8.807 0 0 0-1.975-6.78 8.811 8.811 0 0 0-6.3-3.204l-26.955-1.672-10.674 26.579a48.066 48.066 0 0 0-3.432 20.284z" fill="#1d2445"/><path d="M104.37 167.646a.49.49 0 0 1-.252-.068l-32.165-18.801a.5.5 0 0 1 .504-.864l32.165 18.801a.5.5 0 0 1-.252.932zm31.722 78.537a.487.487 0 0 1-.12-.015l-12.074-2.994a.498.498 0 1 1 .24-.97l11.544 2.862 8.534-54.603a.501.501 0 0 1 .988.154l-8.618 55.143a.495.495 0 0 1-.218.339.495.495 0 0 1-.276.084z" fill="#fff"/><path d="M99.547 207.43h-.013a.501.501 0 0 1-.487-.513l.333-12.609c-.311-1.583.071-6.853 1.136-15.668a34.26 34.26 0 0 1 4.142-12.692l6.12-10.929a.5.5 0 1 1 .873.489l-6.12 10.929a33.246 33.246 0 0 0-4.022 12.323c-1.035 8.576-1.439 14.044-1.139 15.396.009.04.013.081.012.121l-.334 12.667a.502.502 0 0 1-.501.486z" fill="#fff"/></svg></g><g transform="translate(536.25 506.25) rotate(0.0 189.375 727.5) scale(4.091056383668179 4.115913166961806)"><svg width="92.58" height="353.506" viewBox="0 0 92.58 353.506"><path d="m9.745 334.355 11.614 4.034 4.032-11.61a4.025 4.025 0 0 0-2.482-5.123l-4.009-1.392a4.025 4.025 0 0 0-5.123 2.482zm60.004-191.247 7.035 22.727-31.692 85.289s-14.609-8.508-14.609-9.019l12.751-97.914z" fill="#1d2445"/><path d="m33.26 229.206-16.033 32.662a30.012 30.012 0 0 0-2.769 8.98l-9.309 65.214s13.249 2.873 12.734 2.702l25.069-66.726 4.564-31.767zm47.548-96.975 5.384 21.051a7.173 7.173 0 0 1 .027 3.404l-18.603 79.983s-18.426 1.565-18.399 1.053l3.104-57.723 1.913-46.685z" fill="#1d2445"/><path d="m34.77 346.875-2.56-.693s-3.445-2.93-4.658-3.948c-.75-.629-2.165-5.251-2.838-7.568l-1.682-6.135a3.136 3.136 0 0 0-2.483-2.26l-13.825-2.423-.419 2.474-2.199 3.855a24 24 0 0 0-2.852 8.099l-.372 2.926 15.39 1.98-.35.427 14.892 8.693 4.169.461z" fill="#fff"/><path d="M34.984 353.264a.507.507 0 0 1-.055-.003l-4.169-.461a.515.515 0 0 1-.197-.065l-14.892-8.693a.5.5 0 0 1-.247-.464L.819 341.699a.5.5 0 0 1-.432-.56l.372-2.926a24.427 24.427 0 0 1 2.914-8.283l2.154-3.778.404-2.387a.5.5 0 0 1 .58-.408l13.825 2.423a3.653 3.653 0 0 1 2.879 2.62l1.682 6.136c1.437 4.946 2.34 7.034 2.676 7.316 1.101.924 4.037 3.42 4.575 3.878l2.452.664a.5.5 0 0 1 .369.464l.214 5.888a.502.502 0 0 1-.499.518zm-4.008-1.447 3.488.386-.18-4.94-2.205-.598a.506.506 0 0 1-.193-.102s-3.443-2.928-4.655-3.946c-.638-.535-1.646-3.163-2.996-7.811l-1.684-6.144a2.643 2.643 0 0 0-2.086-1.899l-13.331-2.336-.335 1.979a.504.504 0 0 1-.059.164l-2.198 3.855a23.406 23.406 0 0 0-2.793 7.93l-.307 2.414 14.895 1.917a.502.502 0 0 1 .343.787z" fill="#1d2445"/><ellipse cx="19.461" cy="335.78" fill="#1d2445" rx="3.848" ry="1.787" transform="matrix(-.1672 .9859 -.9859 -.1672 353.7684 372.7371)"/><path d="m21.212 345.616 7.992 7.342H14.302L.936 344.665c-.681-.423-.313-1.476.483-1.382z" fill="#1d2445"/><path d="m.5 343.95.539-3.176.131-.077a3.134 3.134 0 0 1 1.954-.409l8.114.958a19.281 19.281 0 0 1 7.336 2.425l10.289 6.086 7.119.079-.495 3.169-7.162-.072-10.739-6.22a19.269 19.269 0 0 0-7.218-2.345l-7.724-.9a3.138 3.138 0 0 0-1.676.267z" fill="#fff"/><path d="M35.487 353.506h-.005l-7.162-.072a.507.507 0 0 1-.246-.067l-10.739-6.22a18.656 18.656 0 0 0-7.025-2.281l-7.724-.899a2.602 2.602 0 0 0-1.409.224l-.469.215a.5.5 0 0 1-.702-.538l.539-3.176a.5.5 0 0 1 .24-.347l.131-.077a3.683 3.683 0 0 1 2.265-.476l8.115.959a19.658 19.658 0 0 1 7.526 2.488l10.179 6.021 6.985.077a.498.498 0 0 1 .488.577l-.495 3.169a.497.497 0 0 1-.492.423zm-7.025-1.072 6.598.067.339-2.172-6.542-.072a.504.504 0 0 1-.249-.069l-10.289-6.086a18.663 18.663 0 0 0-7.14-2.36l-8.114-.958a2.647 2.647 0 0 0-1.573.305l-.346 2.04a3.665 3.665 0 0 1 1.556-.156l7.723.898a19.681 19.681 0 0 1 7.406 2.407zm39.775-126.258-2.045 38.023a18.292 18.292 0 0 1-.481 3.295l-16.334 68.183s-15.708-.042-15.169-.013l3.923-71.367a18.632 18.632 0 0 1 1.386-6.071l11.128-26.97z" fill="#1d2445"/><path d="M51.132 337.575h-4.397l1.432-8.097a3.136 3.136 0 0 1 3.088-2.59h1.767z" fill="#fff"/><path d="M51.132 338.075h-4.397a.497.497 0 0 1-.492-.587l1.432-8.098a3.631 3.631 0 0 1 3.581-3.003h1.767a.497.497 0 0 1 .492.587l-1.89 10.688a.5.5 0 0 1-.493.413zm-3.801-1h3.381l1.713-9.688h-1.17a2.633 2.633 0 0 0-2.596 2.177z" fill="#1d2445"/><path d="M34.509 335.32h15.022v5.463H34.509z" fill="#99644c"/><path d="m74.33 350.102-.796-2.29a3.609 3.609 0 0 0-2.56-2.322l-12.945-3.129a10.794 10.794 0 0 1-6.128-4.053l-2.976-4.003a3.606 3.606 0 0 0-2.895-1.455H34.252v2.51l-1.523 4.168a24.027 24.027 0 0 0-1.458 8.461l.019 2.112h18.326l.001.001z" fill="#fff"/><path d="m74.33 350.601-43.04-.001a.5.5 0 0 1-.5-.496l-.019-2.111a24.442 24.442 0 0 1 1.488-8.637l1.492-4.086v-2.421a.5.5 0 0 1 .5-.5H46.03c1.292 0 2.525.619 3.296 1.656l2.976 4.004a10.303 10.303 0 0 0 5.844 3.864l12.945 3.13a4.09 4.09 0 0 1 2.915 2.644l.796 2.29a.5.5 0 0 1-.472.664zM31.785 349.6l41.841.001-.565-1.626a3.093 3.093 0 0 0-2.205-1.999l-12.945-3.13a11.313 11.313 0 0 1-6.412-4.241l-2.976-4.003a3.122 3.122 0 0 0-2.494-1.253H34.752v2.01c0 .059-.01.116-.03.172L33.2 339.7a23.423 23.423 0 0 0-1.428 8.284z" fill="#1d2445"/><path d="M30.433 349.763h43.886v3.222H30.433z" fill="#fff"/><path d="M74.319 353.485H30.433a.5.5 0 0 1-.5-.5v-3.223a.5.5 0 0 1 .5-.5h43.886a.5.5 0 0 1 .5.5v3.223a.5.5 0 0 1-.5.5zm-43.386-1h42.886v-2.223H30.933z" fill="#1d2445"/><circle cx="39.442" cy="343.107" fill="#1d2445" r="3.848"/><path d="M42.307 250.838a.5.5 0 0 1-.462-.691l6.757-16.29 3.026-49.622c.233-4.973.551-12.434.523-13.775a26.048 26.048 0 0 1-11.265-21.465.5.5 0 0 1 1 0 25.05 25.05 0 0 0 11.021 20.771c.307.21.39.266-.28 14.523l-3.031 49.713a.49.49 0 0 1-.037.161L42.77 250.53a.503.503 0 0 1-.463.308z" fill="#fff"/><path d="M17.903 59.042h11.5V8.125c-6.351 0-11.5 5.149-11.5 11.5z" fill="#1d2445"/><path d="m67.408 27.951-3.135-2.741a1.87 1.87 0 0 1-.132-1.659l.874-2.173c.089-.222.135-.459.135-.699v-6.592l-3.967 2.957V13.21H34.069v13.857a11.98 11.98 0 0 0 3.743 8.705l-.042 3.5-6.682 16.965 11.284 13.919 11.227-27.58 7.791.032a3.746 3.746 0 0 0 3.761-3.745v-6.861l1.888-.98a1.872 1.872 0 0 0 .369-3.071z" fill="#fff"/><g fill="#1d2445"><path d="M42.372 70.656a.498.498 0 0 1-.388-.186L30.699 56.552a.499.499 0 0 1-.077-.498l6.648-16.879.039-3.193a12.404 12.404 0 0 1-3.74-8.914V13.21a.5.5 0 0 1 .5-.5h27.113a.5.5 0 0 1 .5.5v2.838l3.168-2.362a.5.5 0 0 1 .799.401v6.592c0 .305-.058.604-.172.887l-.874 2.172a1.38 1.38 0 0 0 .062 1.151l3.071 2.686a2.372 2.372 0 0 1-.469 3.891l-1.618.841v6.557c0 1.134-.442 2.2-1.244 3.002s-1.867 1.243-3 1.243l-7.471-.03-11.1 27.267a.499.499 0 0 1-.462.31zM31.66 56.149l10.568 13.035 10.908-26.796a.502.502 0 0 1 .463-.312h.002l7.791.031c.88 0 1.695-.338 2.308-.95a3.225 3.225 0 0 0 .951-2.295v-6.86c0-.187.104-.357.27-.443l1.888-.98c.409-.213.675-.597.73-1.054a1.353 1.353 0 0 0-.459-1.199l-3.135-2.741a.476.476 0 0 1-.1-.119 2.386 2.386 0 0 1-.167-2.102l.874-2.173c.066-.164.1-.336.1-.513v-5.596l-3.168 2.362a.502.502 0 0 1-.799-.401V13.71H34.57v13.357c0 3.177 1.274 6.14 3.587 8.343a.497.497 0 0 1 .155.368l-.042 3.5a.517.517 0 0 1-.035.178z"/><path d="M59.365 23.03a.5.5 0 0 1-.354-.853l1.067-1.067a1.612 1.612 0 0 1 1.148-.476h3.314a.5.5 0 0 1 0 1h-3.314a.613.613 0 0 0-.441.183l-1.067 1.067a.502.502 0 0 1-.353.146zM53.55.387h-.56a4.29 4.29 0 0 0-4.29 4.29v14.898h19.865v-4.173C68.565 7.109 61.842.387 53.55.387z"/><path d="M50.991 19.362H28.668v-4.974C28.668 6.442 35.11 0 43.056 0h4.7a3.235 3.235 0 0 1 3.235 3.235z"/><path d="M45.636 36.905h-3.908a9.085 9.085 0 0 1-9.085-9.085v-5.534a3.995 3.995 0 0 0-3.995-3.995h-.995v-4.124h27.612z"/></g><path d="M30.653 20.792a1.5 1.5 0 0 1-1.5-1.5v-12.5a1.5 1.5 0 1 1 3 0v12.5a1.5 1.5 0 0 1-1.5 1.5z" fill="#fff"/><path d="M30.653 21.292c-1.103 0-2-.897-2-2v-12.5c0-1.103.897-2 2-2s2 .897 2 2v12.5c0 1.102-.897 2-2 2zm0-15.5c-.551 0-1 .448-1 1v12.5a1.001 1.001 0 0 0 2 0v-12.5c0-.552-.449-1-1-1z" fill="#1d2445"/><path d="M49.323 30.792h3.33l-.317-6.972a4.22 4.22 0 0 0-4.215-4.028h-.242c-2.318 0-3.949 2.279-3.201 4.474l1.444 4.235a3.382 3.382 0 0 0 3.201 2.291z" fill="#fff"/><path d="M49.081 45.266a.5.5 0 0 1-.493-.418c-.124-.742.09-1.493.586-2.06s1.215-.88 1.965-.851l2.501.085a.5.5 0 0 1 .482.517.512.512 0 0 1-.517.483l-2.501-.085a1.5 1.5 0 0 0-1.531 1.746.5.5 0 0 1-.492.583zm15.992-9.058a.487.487 0 0 1-.141-.021l-1.694-.498a2.388 2.388 0 0 1-1.442-1.194l-.428-.836a.499.499 0 0 1 .438-.727l3.26-.044a.5.5 0 0 1 .507.5v2.32a.498.498 0 0 1-.5.5zm-2.448-2.287.061.118c.17.333.475.585.835.691l1.052.31v-1.146z" fill="#1d2445"/><path d="M86.974 50.914a.96.96 0 0 0-.365-.724l.021-.011v-.001l-4.239-7.79a3.996 3.996 0 0 0-3.629-2.084l-9.018.267a1.748 1.748 0 0 0-2.199-.444l-.403.22a1.95 1.95 0 0 0-.781 2.646l1.832 3.367-.421.235a1.882 1.882 0 0 0-.728 2.556l1.678 2.989a7.803 7.803 0 0 0 4.043 3.479l2.165.82c.093.057.191.101.288.15l-4.146 26.259a39.036 39.036 0 0 0-.225 5.162l.155 6.82a7.556 7.556 0 0 0 7.726 7.382 9.41 9.41 0 0 0 9.195-9.624z" fill="#fff"/><path d="M78.551 102.712c-4.339 0-7.95-3.531-8.049-7.872l-.155-6.819a39.88 39.88 0 0 1 .228-5.229l4.093-25.928h-.001l-2.079-.777a8.324 8.324 0 0 1-4.303-3.702l-1.677-2.989a2.385 2.385 0 0 1 .91-3.231l-1.596-2.933c-.313-.575-.384-1.237-.198-1.865s.604-1.146 1.179-1.459l.403-.22a2.294 2.294 0 0 1 2.655.377l8.924-.262a4.49 4.49 0 0 1 3.946 2.347l4.234 7.782c.254.266.401.61.41.972l.949 41.672c.06 2.647-.914 5.159-2.743 7.073s-4.294 3.001-6.941 3.062zM68.375 40.415a1.23 1.23 0 0 0-.592.151l-.403.22a1.44 1.44 0 0 0-.698.863 1.44 1.44 0 0 0 .117 1.104l1.832 3.367a.5.5 0 0 1-.195.676l-.421.235a1.383 1.383 0 0 0-.535 1.877l1.676 2.986a7.32 7.32 0 0 0 3.785 3.257l2.165.819c.139.075.194.101.249.128.198.096.391.35.356.567l-4.146 26.259a38.702 38.702 0 0 0-.219 5.072l.155 6.819c.086 3.803 3.249 6.896 7.049 6.896l.166-.002a8.85 8.85 0 0 0 6.241-2.753 8.854 8.854 0 0 0 2.466-6.358l-.949-41.672a.468.468 0 0 0-.181-.349.503.503 0 0 1-.175-.293l-4.167-7.657a3.49 3.49 0 0 0-3.068-1.825l-.107.002-9.018.267a.477.477 0 0 1-.405-.188 1.265 1.265 0 0 0-.978-.468z" fill="#1d2445"/><path d="m85.164 106.057 1.619-2.993a10.78 10.78 0 0 0 1.238-6.238l.003-.075-.318-14.2 4.071-.108-.291-10.938-17.1.455-2.186.057-.645 3.668a7.495 7.495 0 0 0-.795-.879l-9.424-8.721-7.555-7.75 4.433.45-5.182-10.967-19.512-3.499-1.701 6.882a14.701 14.701 0 0 0-5.19 3.969 16.09 16.09 0 0 0-2.98 15.079l8.585 27.468c1.174 2.347 9.401 22.953 9.401 22.953l-4.247 42.051 50-8-.309-16.297a24.994 24.994 0 0 0-3.349-12.034l-5.009-8.669-4.644-11.106.888.898c3.026 3.063 8.151 2.331 10.199-1.456z" fill="#fff"/><path d="M37.387 163.222a.497.497 0 0 1-.497-.55l4.235-41.93c-.661-1.653-8.232-20.589-9.339-22.801l-8.615-27.542a16.526 16.526 0 0 1 3.072-15.548 15.13 15.13 0 0 1 5.147-4.002l1.645-6.65a.5.5 0 0 1 .574-.372l19.513 3.498a.503.503 0 0 1 .364.278l5.129 10.855a.5.5 0 0 1-.449.823l-3.063-.311 6.593 6.765 9.406 8.703.143.136.464-2.645a.503.503 0 0 1 .479-.413l19.286-.513c.249.001.505.21.513.486l.291 10.938a.501.501 0 0 1-.487.514l-3.573.095.307 13.703c.227 2.31-.221 4.566-1.301 6.563l-1.619 2.993a6.915 6.915 0 0 1-6.09 3.624 6.845 6.845 0 0 1-4.072-1.332l3.739 8.94 4.98 8.612a25.574 25.574 0 0 1 3.416 12.274l.309 16.297a.502.502 0 0 1-.421.504l-50 8a.36.36 0 0 1-.079.008zM33.893 44.894l-1.589 6.427a.501.501 0 0 1-.276.334 14.157 14.157 0 0 0-5.015 3.835 15.529 15.529 0 0 0-2.888 14.61l8.585 27.468c1.14 2.265 9.052 22.075 9.389 22.917.03.075.041.155.033.235l-4.182 41.404 48.929-7.828-.3-15.862a24.554 24.554 0 0 0-3.282-11.794l-5.009-8.669-4.672-11.162a.5.5 0 0 1 .817-.545l.888.898a5.86 5.86 0 0 0 4.195 1.757 5.913 5.913 0 0 0 5.21-3.101l1.619-2.993a10.265 10.265 0 0 0 1.181-5.949 1.141 1.141 0 0 1 0-.117l-.318-14.198a.501.501 0 0 1 .487-.511l3.571-.095L91 72.017l-18.378.489-.574 3.266a.5.5 0 0 1-.886.221 6.775 6.775 0 0 0-.74-.82l-9.425-8.722-7.572-7.769a.498.498 0 0 1 .408-.845l3.552.36-4.694-9.935z" fill="#1d2445"/><path d="m66.73 158.034 4.992-.832a4 4 0 0 0 3.332-3.653l1.831-25.002.355 23.227a4 4 0 0 0 4.579 3.897l1.313-.192-.639 7.1-15.762 3.124v-7.669zm3.373-107.815a.5.5 0 0 1-.433-.25L66.969 45.3a.5.5 0 1 1 .865-.5l2.702 4.669a.5.5 0 0 1-.433.75zm-11.75 13.317a.502.502 0 0 1-.35-.143l-4.823-4.722a9.525 9.525 0 0 0-4.171-2.384l-3.185-.858a.5.5 0 1 1 .26-.965l3.185.858a10.516 10.516 0 0 1 4.609 2.634l4.823 4.722a.5.5 0 0 1-.348.858zM89.33 83.06H70.438a.5.5 0 0 1 0-1H89.33a.5.5 0 0 1 0 1z" fill="#1d2445"/><path d="m71.637 75.538-2.283 11.073" fill="#fff"/><path d="M69.355 87.111a.5.5 0 0 1-.491-.601l2.282-11.073a.494.494 0 0 1 .591-.389.5.5 0 0 1 .389.59l-2.282 11.073a.5.5 0 0 1-.489.4zm-29.569 32.004 41.559-6.056.961 6.597-41.559 6.056z" fill="#1d2445"/><path d="m90.804 112.42-2.323-2.727a5.348 5.348 0 0 0-5.992-1.524l-1.57.604a2.467 2.467 0 0 0-.735.456c-.927.571-1.824 1.425-2.656 2.621a7.42 7.42 0 0 0-.553.95l-5.67 8.354c-.149.207-.221.724.021.897l.011.008c.778.689 2.097 1.641 2.726 1.004l.692-.792c-.129.229-.18.682.046.844l.011.008c.778.689 2.097 1.641 2.726 1.004l.505-.578-.154.227c-.149.207-.221.724.021.898l.011.008c.778.689 2.097 1.641 2.727 1.004l.257-.295c-.021.167.003.33.107.413l.01.008c.667.667 1.818 1.591 2.472.98l6.424-6.711a4.416 4.416 0 0 0 1.281-1.254 5.347 5.347 0 0 0-.395-6.407z" fill="#fff"/><path d="M82.978 127.492c-.78 0-1.634-.666-2.236-1.256-.88.503-2.271-.402-3.149-1.18l.004-.005a.95.95 0 0 1-.22-.266c-.878.255-2.097-.583-2.894-1.287l.005-.007a1.005 1.005 0 0 1-.073-.073 1.233 1.233 0 0 1-.884.355c-.835 0-1.834-.729-2.524-1.34-.159-.109-.28-.317-.322-.576-.055-.335.034-.745.215-.996l5.662-8.343c.157-.328.351-.66.557-.955.836-1.201 1.779-2.131 2.803-2.761.213-.195.511-.379.818-.497l1.569-.604c2.282-.876 4.974-.188 6.553 1.667l2.322 2.727a5.878 5.878 0 0 1 .434 7.006 4.901 4.901 0 0 1-1.377 1.368l-6.383 6.669a1.254 1.254 0 0 1-.88.354zm-1.652-2.077c.837.829 1.549 1.271 1.828 1.013l6.403-6.691a.505.505 0 0 1 .091-.075 3.9 3.9 0 0 0 1.137-1.112 4.875 4.875 0 0 0-.362-5.805l-2.322-2.727c-1.31-1.538-3.54-2.109-5.433-1.382l-1.569.604a1.978 1.978 0 0 0-.586.366c-.973.606-1.816 1.441-2.573 2.529a6.92 6.92 0 0 0-.516.887l-5.705 8.414a.45.45 0 0 0-.043.275c.752.646 1.466 1.063 1.856 1.063.103 0 .146-.029.178-.062l.671-.77a.5.5 0 0 1 .812.575.484.484 0 0 0-.044.234c.775.679 1.475 1.085 1.86 1.085.103 0 .146-.029.178-.062l.483-.556a.5.5 0 0 1 .79.611l-.154.227a.48.48 0 0 0-.049.251c.762.673 1.473 1.088 1.861 1.088.103 0 .146-.029.178-.062l.236-.272a.501.501 0 0 1 .873.39c-.005.059-.026.005-.079-.036zM74.41 107.56a.5.5 0 0 1-.343-.136L49.46 84.247c-.529-.499-1.186-.475-1.623-.286s-.905.648-.906 1.374l-.001.689a.5.5 0 0 1-.5.499h-.001a.5.5 0 0 1-.499-.501l.001-.689a2.465 2.465 0 0 1 1.511-2.29 2.467 2.467 0 0 1 2.704.476l24.607 23.178a.5.5 0 0 1-.343.863z" fill="#1d2445"/><path d="M74.271 123.287a.498.498 0 0 1-.393-.807l4.163-5.338a.5.5 0 1 1 .788.615l-4.163 5.338a.5.5 0 0 1-.395.192zm3.232 1.519a.498.498 0 0 1-.393-.807l3.625-4.647a.499.499 0 1 1 .788.615l-3.625 4.647a.502.502 0 0 1-.395.192zm2.988 1.616a.498.498 0 0 1-.394-.807l3.624-4.647a.5.5 0 1 1 .789.615l-3.624 4.647a.504.504 0 0 1-.395.192z" fill="#1d2445"/></svg></g></svg>